<mxfile host="app.diagrams.net" modified="2021-11-09T08:31:54.606Z" agent="5.0 (Windows NT 10.0; Win64; x64) AppleWebKit/537.36 (KHTML, like Gecko) Chrome/95.0.4638.69 Safari/537.36" etag="-39o_KinyDfNlJCceRzk" version="15.7.0" type="github">
  <diagram id="C5RBs43oDa-KdzZeNtuy" name="Page-1">
    <mxGraphModel dx="1248" dy="677" grid="1" gridSize="10" guides="1" tooltips="1" connect="1" arrows="1" fold="1" page="1" pageScale="1" pageWidth="827" pageHeight="1169" math="0" shadow="0">
      <root>
        <mxCell id="WIyWlLk6GJQsqaUBKTNV-0" />
        <mxCell id="WIyWlLk6GJQsqaUBKTNV-1" parent="WIyWlLk6GJQsqaUBKTNV-0" />
        <mxCell id="iysmJdtdL367VMLZ1q8t-0" value="&lt;font size=&quot;1&quot;&gt;&lt;b&gt;act ACTIVITY REGISTER&lt;/b&gt;&lt;/font&gt;" style="shape=umlFrame;whiteSpace=wrap;html=1;hachureGap=4;pointerEvents=0;fontFamily=Times New Roman;fontSize=20;width=130;height=20;fillColor=#F5AB50;strokeColor=#909090;fontColor=#1A1A1A;align=left;" vertex="1" parent="WIyWlLk6GJQsqaUBKTNV-1">
          <mxGeometry x="80" y="40" width="480" height="990" as="geometry" />
        </mxCell>
        <mxCell id="iysmJdtdL367VMLZ1q8t-14" value="User" style="swimlane;startSize=20;hachureGap=4;pointerEvents=0;fontFamily=Times New Roman;fontSize=12;align=center;" vertex="1" parent="WIyWlLk6GJQsqaUBKTNV-1">
          <mxGeometry x="120" y="110" width="200" height="900" as="geometry" />
        </mxCell>
        <mxCell id="iysmJdtdL367VMLZ1q8t-18" value="" style="ellipse;html=1;shape=startState;fillColor=#000000;strokeColor=#ff0000;hachureGap=4;pointerEvents=0;fontFamily=Times New Roman;fontSize=12;align=center;" vertex="1" parent="iysmJdtdL367VMLZ1q8t-14">
          <mxGeometry x="85" y="40" width="30" height="30" as="geometry" />
        </mxCell>
        <mxCell id="iysmJdtdL367VMLZ1q8t-19" value="Mulai" style="edgeStyle=orthogonalEdgeStyle;html=1;verticalAlign=bottom;endArrow=open;endSize=8;strokeColor=#ff0000;rounded=0;hachureGap=4;fontFamily=Times New Roman;fontSize=12;sourcePerimeterSpacing=8;targetPerimeterSpacing=8;curved=1;" edge="1" source="iysmJdtdL367VMLZ1q8t-18" parent="iysmJdtdL367VMLZ1q8t-14">
          <mxGeometry relative="1" as="geometry">
            <mxPoint x="100" y="130" as="targetPoint" />
          </mxGeometry>
        </mxCell>
        <mxCell id="iysmJdtdL367VMLZ1q8t-15" value="System" style="swimlane;startSize=20;hachureGap=4;pointerEvents=0;fontFamily=Times New Roman;fontSize=12;align=center;" vertex="1" parent="WIyWlLk6GJQsqaUBKTNV-1">
          <mxGeometry x="320" y="110" width="200" height="900" as="geometry" />
        </mxCell>
        <mxCell id="iysmJdtdL367VMLZ1q8t-22" value="Menampilkan Halaman Welcome" style="rounded=1;whiteSpace=wrap;html=1;arcSize=40;fontColor=#000000;fillColor=#ffffc0;strokeColor=#ff0000;hachureGap=4;pointerEvents=0;fontFamily=Times New Roman;fontSize=12;align=center;" vertex="1" parent="iysmJdtdL367VMLZ1q8t-15">
          <mxGeometry x="40" y="140" width="120" height="40" as="geometry" />
        </mxCell>
        <mxCell id="iysmJdtdL367VMLZ1q8t-20" value="Menjalankan Aplikasi" style="rounded=1;whiteSpace=wrap;html=1;arcSize=40;fontColor=#000000;fillColor=#ffffc0;strokeColor=#ff0000;hachureGap=4;pointerEvents=0;fontFamily=Times New Roman;fontSize=12;align=center;" vertex="1" parent="WIyWlLk6GJQsqaUBKTNV-1">
          <mxGeometry x="160" y="250" width="120" height="40" as="geometry" />
        </mxCell>
        <mxCell id="iysmJdtdL367VMLZ1q8t-21" value="" style="edgeStyle=orthogonalEdgeStyle;html=1;verticalAlign=bottom;endArrow=open;endSize=8;strokeColor=#ff0000;rounded=0;hachureGap=4;fontFamily=Times New Roman;fontSize=12;sourcePerimeterSpacing=8;targetPerimeterSpacing=8;curved=1;" edge="1" source="iysmJdtdL367VMLZ1q8t-20" parent="WIyWlLk6GJQsqaUBKTNV-1">
          <mxGeometry relative="1" as="geometry">
            <mxPoint x="220" y="350" as="targetPoint" />
          </mxGeometry>
        </mxCell>
        <mxCell id="iysmJdtdL367VMLZ1q8t-23" value="Klick button daftar" style="rounded=1;whiteSpace=wrap;html=1;arcSize=40;fontColor=#000000;fillColor=#ffffc0;strokeColor=#ff0000;hachureGap=4;pointerEvents=0;fontFamily=Times New Roman;fontSize=12;align=center;" vertex="1" parent="WIyWlLk6GJQsqaUBKTNV-1">
          <mxGeometry x="160" y="370" width="120" height="40" as="geometry" />
        </mxCell>
        <mxCell id="iysmJdtdL367VMLZ1q8t-24" value="Menampilkan form cek NIK" style="rounded=1;whiteSpace=wrap;html=1;arcSize=40;fontColor=#000000;fillColor=#ffffc0;strokeColor=#ff0000;hachureGap=4;pointerEvents=0;fontFamily=Times New Roman;fontSize=12;align=center;" vertex="1" parent="WIyWlLk6GJQsqaUBKTNV-1">
          <mxGeometry x="360" y="370" width="120" height="40" as="geometry" />
        </mxCell>
        <mxCell id="iysmJdtdL367VMLZ1q8t-25" value="Mengisi NIK" style="rounded=1;whiteSpace=wrap;html=1;arcSize=40;fontColor=#000000;fillColor=#ffffc0;strokeColor=#ff0000;hachureGap=4;pointerEvents=0;fontFamily=Times New Roman;fontSize=12;align=center;" vertex="1" parent="WIyWlLk6GJQsqaUBKTNV-1">
          <mxGeometry x="160" y="450" width="120" height="40" as="geometry" />
        </mxCell>
        <mxCell id="iysmJdtdL367VMLZ1q8t-26" value="Klick button&amp;nbsp;cek NIK" style="rounded=1;whiteSpace=wrap;html=1;arcSize=40;fontColor=#000000;fillColor=#ffffc0;strokeColor=#ff0000;hachureGap=4;pointerEvents=0;fontFamily=Times New Roman;fontSize=12;align=center;" vertex="1" parent="WIyWlLk6GJQsqaUBKTNV-1">
          <mxGeometry x="160" y="510" width="120" height="40" as="geometry" />
        </mxCell>
        <mxCell id="iysmJdtdL367VMLZ1q8t-31" value="Data &lt;br&gt;Valid?" style="rhombus;whiteSpace=wrap;html=1;fillColor=#ffffc0;strokeColor=#ff0000;hachureGap=4;pointerEvents=0;fontFamily=Times New Roman;fontSize=12;align=center;" vertex="1" parent="WIyWlLk6GJQsqaUBKTNV-1">
          <mxGeometry x="374" y="440" width="80" height="60" as="geometry" />
        </mxCell>
        <mxCell id="iysmJdtdL367VMLZ1q8t-32" value="no" style="edgeStyle=orthogonalEdgeStyle;html=1;align=left;verticalAlign=bottom;endArrow=open;endSize=8;strokeColor=#ff0000;rounded=0;hachureGap=4;fontFamily=Times New Roman;fontSize=12;sourcePerimeterSpacing=8;targetPerimeterSpacing=8;curved=1;" edge="1" source="iysmJdtdL367VMLZ1q8t-31" parent="WIyWlLk6GJQsqaUBKTNV-1">
          <mxGeometry x="-1" relative="1" as="geometry">
            <mxPoint x="507" y="470" as="targetPoint" />
          </mxGeometry>
        </mxCell>
        <mxCell id="iysmJdtdL367VMLZ1q8t-33" value="yes" style="edgeStyle=orthogonalEdgeStyle;html=1;align=left;verticalAlign=top;endArrow=open;endSize=8;strokeColor=#ff0000;rounded=0;hachureGap=4;fontFamily=Times New Roman;fontSize=12;sourcePerimeterSpacing=8;targetPerimeterSpacing=8;curved=1;" edge="1" source="iysmJdtdL367VMLZ1q8t-31" parent="WIyWlLk6GJQsqaUBKTNV-1">
          <mxGeometry x="-1" relative="1" as="geometry">
            <mxPoint x="420" y="560" as="targetPoint" />
          </mxGeometry>
        </mxCell>
        <mxCell id="iysmJdtdL367VMLZ1q8t-34" value="Menampilkan form Buat Akun" style="rounded=1;whiteSpace=wrap;html=1;arcSize=40;fontColor=#000000;fillColor=#ffffc0;strokeColor=#ff0000;hachureGap=4;pointerEvents=0;fontFamily=Times New Roman;fontSize=12;align=center;" vertex="1" parent="WIyWlLk6GJQsqaUBKTNV-1">
          <mxGeometry x="360" y="585" width="120" height="40" as="geometry" />
        </mxCell>
        <mxCell id="iysmJdtdL367VMLZ1q8t-35" value="Mengisi Nama, Email dan Password" style="rounded=1;whiteSpace=wrap;html=1;arcSize=40;fontColor=#000000;fillColor=#ffffc0;strokeColor=#ff0000;hachureGap=4;pointerEvents=0;fontFamily=Times New Roman;fontSize=12;align=center;" vertex="1" parent="WIyWlLk6GJQsqaUBKTNV-1">
          <mxGeometry x="160" y="600" width="120" height="40" as="geometry" />
        </mxCell>
        <mxCell id="iysmJdtdL367VMLZ1q8t-36" value="Klick button&amp;nbsp; Buat Akun" style="rounded=1;whiteSpace=wrap;html=1;arcSize=40;fontColor=#000000;fillColor=#ffffc0;strokeColor=#ff0000;hachureGap=4;pointerEvents=0;fontFamily=Times New Roman;fontSize=12;align=center;" vertex="1" parent="WIyWlLk6GJQsqaUBKTNV-1">
          <mxGeometry x="160" y="660" width="120" height="40" as="geometry" />
        </mxCell>
        <mxCell id="iysmJdtdL367VMLZ1q8t-37" value="Data &lt;br&gt;Valid?" style="rhombus;whiteSpace=wrap;html=1;fillColor=#ffffc0;strokeColor=#ff0000;hachureGap=4;pointerEvents=0;fontFamily=Times New Roman;fontSize=12;align=center;" vertex="1" parent="WIyWlLk6GJQsqaUBKTNV-1">
          <mxGeometry x="374" y="680" width="80" height="60" as="geometry" />
        </mxCell>
        <mxCell id="iysmJdtdL367VMLZ1q8t-38" value="no" style="edgeStyle=orthogonalEdgeStyle;html=1;align=left;verticalAlign=bottom;endArrow=open;endSize=8;strokeColor=#ff0000;rounded=0;hachureGap=4;fontFamily=Times New Roman;fontSize=12;sourcePerimeterSpacing=8;targetPerimeterSpacing=8;curved=1;" edge="1" source="iysmJdtdL367VMLZ1q8t-37" parent="WIyWlLk6GJQsqaUBKTNV-1">
          <mxGeometry x="-1" relative="1" as="geometry">
            <mxPoint x="507" y="710" as="targetPoint" />
          </mxGeometry>
        </mxCell>
        <mxCell id="iysmJdtdL367VMLZ1q8t-39" value="yes" style="edgeStyle=orthogonalEdgeStyle;html=1;align=left;verticalAlign=top;endArrow=open;endSize=8;strokeColor=#ff0000;rounded=0;hachureGap=4;fontFamily=Times New Roman;fontSize=12;sourcePerimeterSpacing=8;targetPerimeterSpacing=8;curved=1;" edge="1" source="iysmJdtdL367VMLZ1q8t-37" parent="WIyWlLk6GJQsqaUBKTNV-1">
          <mxGeometry x="-1" relative="1" as="geometry">
            <mxPoint x="420" y="800" as="targetPoint" />
          </mxGeometry>
        </mxCell>
      </root>
    </mxGraphModel>
  </diagram>
</mxfile>
